<svg height="100%" stroke-miterlimit="10" style="fill-rule:nonzero;clip-rule:evenodd;stroke-linecap:round;stroke-linejoin:round;" version="1.1" viewBox="0 0 134.62 45" width="100%" xml:space="preserve" xmlns="http://www.w3.org/2000/svg" xmlns:xlink="http://www.w3.org/1999/xlink">
<defs/>
<g id="Без-названия">
<g opacity="1">
<path d="M123.9 0L9.48 0L8.48 0C7.72589 0.007024 6.97353 0.0739007 6.23 0.2C5.48464 0.320785 4.76265 0.55695 4.09 0.9C3.40898 1.24961 2.78789 1.7053 2.25 2.25C1.71126 2.78083 1.2621 3.39547 0.92 4.07C0.57829 4.74321 0.342195 5.46499 0.22 6.21C0.0917737 6.9667 0.0248895 7.73253 0.02 8.5C0.02 8.85 0.02 9.19 0.02 9.5L0.02 35.5C0.02 35.85 0.02 36.19 0.02 36.5C0.0266004 37.2541 0.0934801 38.0065 0.22 38.75C0.342281 39.4982 0.578347 40.2232 0.92 40.9C1.26211 41.5715 1.71133 42.1829 2.25 42.71C2.78083 43.2487 3.39547 43.6979 4.07 44.04C4.74401 44.3819 5.4653 44.6212 6.21 44.75C6.95477 44.8662 7.70641 44.933 8.46 44.95L126.16 44.95C126.914 44.9335 127.665 44.8667 128.41 44.75C129.157 44.6165 129.881 44.3774 130.56 44.04C131.908 43.3453 133.005 42.2477 133.7 40.9C134.042 40.2232 134.278 39.4982 134.4 38.75C134.525 38.0061 134.595 37.2541 134.61 36.5L134.61 35.5C134.61 35.09 134.61 34.69 134.61 34.27L134.61 10.73C134.61 10.32 134.61 9.91 134.61 9.5L134.61 8.5C134.595 7.7459 134.524 6.99392 134.4 6.25C134.278 5.50499 134.042 4.78321 133.7 4.11C133.362 3.42363 132.916 2.79571 132.38 2.25C131.845 1.71633 131.231 1.26779 130.56 0.92C129.882 0.581183 129.157 0.34526 128.41 0.22C127.667 0.0934801 126.914 0.0266004 126.16 0.02L125.16 0.02L123.9 0Z" fill="#b7b7b7" fill-rule="nonzero" opacity="1" stroke="none"/>
<path d="M9.48 44.02L8.48 44.02C7.77637 44.0151 7.07421 43.9549 6.38 43.84C5.71681 43.7285 5.07551 43.5124 4.48 43.2C3.89587 42.9117 3.36498 42.5262 2.91 42.06C2.45808 41.6034 2.08321 41.0766 1.8 40.5C1.50327 39.9111 1.2976 39.2806 1.19 38.63C1.06828 37.9264 1.00473 37.214 1 36.5C1 36.26 1 35.5 1 35.5L1 9.5C1 9.5 1 8.72 1 8.5C1.00574 7.79598 1.06929 7.09362 1.19 6.4C1.29464 5.73912 1.50038 5.09828 1.8 4.5C2.096 3.92353 2.48069 3.39712 2.94 2.94C3.39065 2.47919 3.91018 2.09123 4.48 1.79C5.07852 1.49096 5.71927 1.28525 6.38 1.18C7.07452 1.06762 7.77649 1.00745 8.48 1L9.48 1L125.12 1L126.12 1C126.82 1.007 127.519 1.06718 128.21 1.18C128.865 1.28931 129.499 1.49841 130.09 1.8C130.678 2.09152 131.215 2.47652 131.68 2.94C132.142 3.39672 132.531 3.92311 132.83 4.5C133.125 5.08526 133.327 5.71272 133.43 6.36C133.545 7.06124 133.612 7.76958 133.63 8.48L133.63 9.5C133.63 9.92 133.63 10.32 133.63 10.73L133.63 34.27C133.63 34.68 133.63 35.08 133.63 35.48L133.63 36.5C133.61 37.1966 133.547 37.8913 133.44 38.58C133.331 39.2334 133.125 39.867 132.83 40.46C132.534 41.0363 132.149 41.5627 131.69 42.02C131.226 42.4828 130.693 42.8708 130.11 43.17C129.518 43.47 128.884 43.679 128.23 43.79C127.536 43.9061 126.834 43.9663 126.13 43.97L125.13 43.97L9.48 43.97L9.48 44.02Z" fill="#000000" fill-rule="nonzero" opacity="1" stroke="none"/>
<path d="M27.87 22.84C27.8809 20.9386 28.8662 19.1756 30.48 18.17C29.4522 16.6951 27.7869 15.7938 25.99 15.74C24.1 15.54 22.27 16.87 21.3 16.87C20.33 16.87 18.88 15.76 17.28 15.79C15.1925 15.8731 13.2985 17.036 12.28 18.86C10.11 22.63 11.73 28.16 13.81 31.21C14.81 32.7 16.07 34.37 17.67 34.31C19.27 34.25 19.81 33.31 21.67 33.31C23.53 33.31 24.08 34.31 25.67 34.31C27.26 34.31 28.4 32.81 29.4 31.31C30.1501 30.2475 30.7273 29.073 31.11 27.83C29.1267 26.9674 27.851 25.0027 27.87 22.84Z" fill="#ffffff" fill-rule="nonzero" opacity="1" stroke="none"/>
<path d="M24.79 13.74C25.7061 12.6443 26.1582 11.2341 26.05 9.81C24.6671 9.96209 23.3924 10.6298 22.48 11.68C21.5363 12.7199 21.0561 14.0989 21.15 15.5C22.5696 15.5051 23.9124 14.8558 24.79 13.74Z" fill="#ffffff" fill-rule="nonzero" opacity="1" stroke="none"/>
<path d="M47.59 30.5L42.27 30.5L40.99 34.28L38.73 34.28L43.73 20.28L46.07 20.28L51.07 34.28L48.87 34.28L47.59 30.5ZM42.82 28.76L47.04 28.76L44.96 22.63L44.9 22.63L42.82 28.76Z" fill="#ffffff" fill-rule="nonzero" opacity="1" stroke="none"/>
<path d="M62.06 29.22C62.06 32.38 60.36 34.41 57.81 34.41C56.4864 34.4848 55.2376 33.7923 54.6 32.63L54.6 32.63L54.6 37.68L52.48 37.68L52.48 24.12L54.48 24.12L54.48 25.82L54.48 25.82C55.1461 24.6642 56.3968 23.9715 57.73 24.02C60.35 24.02 62.06 26.06 62.06 29.22ZM59.91 29.22C59.91 27.15 58.84 25.8 57.22 25.8C55.6 25.8 54.54 27.18 54.54 29.22C54.54 31.26 55.62 32.64 57.22 32.64C58.82 32.64 59.91 31.3 59.91 29.22Z" fill="#ffffff" fill-rule="nonzero" opacity="1" stroke="none"/>
<path d="M73.27 29.22C73.27 32.38 71.57 34.41 69.02 34.41C67.6964 34.4848 66.4476 33.7923 65.81 32.63L65.81 32.63L65.81 37.68L63.67 37.68L63.67 24.12L65.67 24.12L65.67 25.82L65.67 25.82C66.3378 24.6658 67.5874 23.9737 68.92 24.02C71.56 24.02 73.27 26.06 73.27 29.22ZM71.12 29.22C71.12 27.15 70.05 25.8 68.43 25.8C66.81 25.8 65.75 27.18 65.75 29.22C65.75 31.26 66.83 32.64 68.43 32.64C70.03 32.64 71.12 31.3 71.12 29.22Z" fill="#ffffff" fill-rule="nonzero" opacity="1" stroke="none"/>
<path d="M80.68 30.42C80.83 31.8 82.18 32.71 84.02 32.71C85.86 32.71 87.02 31.8 87.02 30.55C87.02 29.47 86.25 28.82 84.44 28.37L82.63 27.94C80.06 27.32 78.87 26.12 78.87 24.17C78.87 21.76 80.97 20.1 83.96 20.1C86.95 20.1 88.96 21.76 88.96 24.17L86.92 24.17C86.79 22.78 85.64 21.94 83.92 21.94C82.2 21.94 81.08 22.79 81.08 24.03C81.08 25.03 81.82 25.59 83.62 26.03L85.16 26.41C88.02 27.09 89.16 28.24 89.16 30.28C89.16 32.89 87.08 34.53 83.77 34.53C80.67 34.53 78.58 32.93 78.45 30.41L80.68 30.42Z" fill="#ffffff" fill-rule="nonzero" opacity="1" stroke="none"/>
<path d="M93.77 21.71L93.77 24.12L95.7 24.12L95.7 25.78L93.77 25.78L93.77 31.39C93.77 32.27 94.15 32.67 95 32.67C95.2308 32.6666 95.4612 32.6499 95.69 32.62L95.69 34.27C95.308 34.3442 94.9191 34.3777 94.53 34.37C92.47 34.37 91.66 33.59 91.66 31.62L91.66 25.78L90.18 25.78L90.18 24.12L91.66 24.12L91.66 21.71L93.77 21.71Z" fill="#ffffff" fill-rule="nonzero" opacity="1" stroke="none"/>
<path d="M96.82 29.22C96.82 26.01 98.71 24 101.65 24C104.59 24 106.49 26 106.49 29.22C106.49 32.44 104.62 34.43 101.65 34.43C98.68 34.43 96.82 32.43 96.82 29.22ZM104.36 29.22C104.36 27.02 103.36 25.72 101.65 25.72C99.94 25.72 98.95 27.03 98.95 29.22C98.95 31.41 99.95 32.71 101.65 32.71C103.35 32.71 104.36 31.42 104.36 29.22Z" fill="#ffffff" fill-rule="nonzero" opacity="1" stroke="none"/>
<path d="M108.21 24.12L110.21 24.12L110.21 25.86L110.21 25.86C110.485 24.7419 111.51 23.9724 112.66 24.02C112.902 24.0215 113.143 24.045 113.38 24.09L113.38 26.09C113.076 25.9946 112.758 25.9507 112.44 25.96C111.824 25.9355 111.228 26.1815 110.809 26.6333C110.39 27.0852 110.189 27.6977 110.26 28.31L110.26 34.31L108.17 34.31L108.21 24.12Z" fill="#ffffff" fill-rule="nonzero" opacity="1" stroke="none"/>
<path d="M123.06 31.32C122.78 33.17 120.98 34.43 118.67 34.43C115.67 34.43 113.87 32.43 113.87 29.26C113.87 26.09 115.72 24 118.58 24C121.44 24 123.17 25.93 123.17 29L123.17 29.72L115.98 29.72L115.98 29.84C115.914 30.5985 116.176 31.3491 116.7 31.9017C117.223 32.4542 117.959 32.7558 118.72 32.73C119.733 32.8259 120.689 32.2442 121.07 31.3L123.06 31.32ZM115.99 28.32L121.08 28.32C121.119 27.6375 120.872 26.9697 120.397 26.4779C119.922 25.9861 119.263 25.7149 118.58 25.73C117.163 25.7244 116.006 26.8629 115.99 28.28L115.99 28.32Z" fill="#ffffff" fill-rule="nonzero" opacity="1" stroke="none"/>
<path d="M41.33 12.66L42.23 12.66C42.5397 12.6934 42.8495 12.5975 43.0861 12.395C43.3227 12.1924 43.4653 11.9011 43.48 11.59C43.48 10.97 43.02 10.59 42.23 10.59C41.5806 10.4998 40.9776 10.9433 40.87 11.59L39.87 11.59C39.8931 11.0005 40.1632 10.4479 40.614 10.0675C41.0649 9.68698 41.655 9.5137 42.24 9.59C43.59 9.66 44.48 10.4 44.48 11.5C44.4883 12.2371 43.9794 12.8794 43.26 13.04L43.26 13.12C44.1194 13.1579 44.7882 13.8803 44.76 14.74C44.6974 15.3402 44.3963 15.8901 43.9243 16.2662C43.4523 16.6423 42.8491 16.813 42.25 16.74C40.79 16.74 39.79 15.95 39.73 14.74L40.73 14.74C40.79 15.38 41.38 15.8 42.25 15.8C43.12 15.8 43.69 15.33 43.69 14.68C43.69 14.03 43.15 13.6 42.22 13.6L41.29 13.6L41.33 12.66Z" fill="#ffffff" fill-rule="nonzero" opacity="1" stroke="none"/>
<path d="M45.93 15.1C45.93 14.19 46.61 13.66 47.82 13.59L49.19 13.5L49.19 13.06C49.19 12.53 48.84 12.23 48.19 12.23C47.54 12.23 47.25 12.43 47.14 12.79L46.14 12.79C46.24 11.92 47.06 11.36 48.21 11.36C49.36 11.36 50.21 11.99 50.21 13.06L50.21 16.5L49.21 16.5L49.21 15.79L49.13 15.79C48.8067 16.3135 48.2245 16.6199 47.61 16.59C47.1865 16.6288 46.7657 16.4908 46.4475 16.2086C46.1293 15.9264 45.942 15.5251 45.93 15.1ZM49.19 14.67L49.19 14.25L47.95 14.33C47.26 14.33 46.95 14.61 46.95 15.06C46.95 15.51 47.34 15.78 47.89 15.78C48.2101 15.8076 48.5279 15.7057 48.7723 15.497C49.0166 15.2884 49.1671 14.9905 49.19 14.67Z" fill="#ffffff" fill-rule="nonzero" opacity="1" stroke="none"/>
<path d="M52.84 12.31L52.84 16.5L51.84 16.5L51.84 11.5L55.18 11.5L55.18 12.34L52.84 12.31Z" fill="#ffffff" fill-rule="nonzero" opacity="1" stroke="none"/>
<path d="M61.23 14C61.23 15.61 60.42 16.62 59.14 16.62C58.4999 16.6597 57.8937 16.3294 57.58 15.77L57.48 15.77L57.48 18.22L56.48 18.22L56.48 11.5L57.48 11.5L57.48 12.34L57.55 12.34C57.8635 11.7575 58.4787 11.4015 59.14 11.42C60.42 11.39 61.23 12.39 61.23 14ZM60.23 14C60.23 12.93 59.72 12.28 58.87 12.28C58.02 12.28 57.48 12.94 57.48 14C57.48 15.06 58.01 15.72 58.85 15.72C59.69 15.72 60.21 15.07 60.21 14L60.23 14Z" fill="#ffffff" fill-rule="nonzero" opacity="1" stroke="none"/>
<path d="M62.57 18.35L62.57 17.5L62.89 17.5C63.3329 17.5329 63.7295 17.2268 63.81 16.79L63.88 16.54L62.05 11.5L63.14 11.5L64.41 15.5L64.48 15.5L65.74 11.5L66.8 11.5L64.91 16.77C64.48 18.01 64 18.4 62.97 18.4L62.57 18.35Z" fill="#ffffff" fill-rule="nonzero" opacity="1" stroke="none"/>
<path d="M67.59 15.1L68.59 15.1C68.69 15.54 69.1 15.78 69.69 15.78C70.28 15.78 70.76 15.48 70.76 15.03C70.76 14.58 70.4 14.31 69.69 14.31L68.93 14.31L68.93 13.5L69.68 13.5C70.28 13.5 70.59 13.27 70.59 12.84C70.59 12.41 70.29 12.19 69.68 12.19C69.07 12.19 68.68 12.43 68.68 12.83L67.68 12.83C67.8241 11.8682 68.7172 11.2029 69.68 11.34C70.88 11.34 71.57 11.89 71.57 12.74C71.5797 13.2228 71.2431 13.6435 70.77 13.74L70.77 13.82C71.349 13.8822 71.7837 14.3778 71.77 14.96C71.77 15.96 70.95 16.56 69.7 16.56C68.45 16.56 67.68 16.12 67.59 15.1Z" fill="#ffffff" fill-rule="nonzero" opacity="1" stroke="none"/>
<path d="M73.2 16.5L73.2 11.5L74.2 11.5L74.2 14.98L74.28 14.98L76.6 11.5L77.6 11.5L77.6 16.5L76.6 16.5L76.6 13L76.53 13L74.19 16.5L73.2 16.5Z" fill="#ffffff" fill-rule="nonzero" opacity="1" stroke="none"/>
<path d="M83.05 12.31L81.48 12.31L81.48 16.5L80.48 16.5L80.48 12.31L78.88 12.31L78.88 11.5L83.07 11.5L83.05 12.31Z" fill="#ffffff" fill-rule="nonzero" opacity="1" stroke="none"/>
<path d="M88.48 15.17C88.1925 16.1219 87.2688 16.7349 86.28 16.63C85.6054 16.6479 84.9569 16.3687 84.5064 15.8662C84.0559 15.3637 83.8488 14.6887 83.94 14.02C83.8501 13.3477 84.0564 12.6695 84.5053 12.1611C84.9543 11.6526 85.6017 11.364 86.28 11.37C87.69 11.37 88.54 12.37 88.54 13.93L88.54 14.27L84.92 14.27L84.92 14.33C84.889 14.7058 85.0178 15.0772 85.2747 15.3532C85.5317 15.6291 85.893 15.7841 86.27 15.78C86.7591 15.8372 87.2351 15.5972 87.48 15.17L88.48 15.17ZM84.92 13.5L87.48 13.5C87.5054 13.1576 87.3854 12.8204 87.1494 12.5711C86.9134 12.3218 86.5832 12.1834 86.24 12.19C85.89 12.1846 85.5527 12.3206 85.3042 12.5671C85.0558 12.8137 84.9173 13.15 84.92 13.5Z" fill="#ffffff" fill-rule="nonzero" opacity="1" stroke="none"/>
<path d="M92.68 11.5L94.96 11.5C95.96 11.5 96.54 12 96.54 12.79C96.5384 13.3037 96.1814 13.7479 95.68 13.86L95.68 13.94C96.2939 13.9722 96.7716 14.4854 96.76 15.1C96.76 15.99 96.1 16.56 94.99 16.56L92.68 16.56L92.68 11.5ZM93.68 12.27L93.68 13.58L94.68 13.58C95.29 13.58 95.57 13.35 95.57 12.92C95.57 12.49 95.32 12.27 94.79 12.27L93.68 12.27ZM93.68 14.27L93.68 15.76L94.87 15.76C95.46 15.76 95.77 15.5 95.77 15.02C95.77 14.54 95.41 14.27 94.77 14.27L93.68 14.27Z" fill="#ffffff" fill-rule="nonzero" opacity="1" stroke="none"/>
</g>
</g>
</svg>
