<svg height="100%" viewBox="0 0 134.62 45" width="100%" xml:space="preserve" xmlns="http://www.w3.org/2000/svg" xmlns:xlink="http://www.w3.org/1999/xlink">
<path d="M123.9 0L8.48 0C7.72587 0.00660041 6.97347 0.0734801 6.23 0.2C5.48464 0.320785 4.76265 0.55695 4.09 0.9C3.41055 1.25215 2.78984 1.70756 2.25 2.25C1.71126 2.78083 1.2621 3.39547 0.92 4.07C0.57695 4.74265 0.340785 5.46464 0.22 6.21C0.0817861 6.9657 0.00818681 7.73181 0 8.5L0 36.5C0.00660041 37.2541 0.0734801 38.0065 0.2 38.75C0.322281 39.4982 0.558347 40.2232 0.9 40.9C1.24211 41.5715 1.69133 42.1829 2.23 42.71C2.76986 43.2363 3.3912 43.6719 4.07 44C4.74463 44.3404 5.46569 44.5796 6.21 44.71C6.95471 44.8267 7.70639 44.8935 8.46 44.91L126.16 44.91C126.914 44.8935 127.665 44.8267 128.41 44.71C129.158 44.5797 129.882 44.3405 130.56 44C131.911 43.3092 133.009 42.2105 133.7 40.86C134.042 40.1832 134.278 39.4582 134.4 38.71C134.525 37.9661 134.595 37.2141 134.61 36.46L134.61 8.5C134.59 7.74617 134.52 6.99451 134.4 6.25C134.279 5.50464 134.043 4.78265 133.7 4.11C133.362 3.42336 132.917 2.79538 132.38 2.25C131.842 1.71945 131.229 1.27128 130.56 0.92C129.881 0.58268 129.157 0.346831 128.41 0.22C127.667 0.0934801 126.914 0.0266004 126.16 0.02L125.16 0.02L123.9 0Z" fill="#a6a6a6"  />
<path d="M9.48 44L8.48 44C7.77637 43.9951 7.0742 43.9349 6.38 43.82C5.71722 43.7068 5.07617 43.4909 4.48 43.18C3.89526 42.8927 3.36421 42.5071 2.91 42.04C2.45944 41.5898 2.0846 41.0698 1.8 40.5C1.50313 39.9112 1.29745 39.2806 1.19 38.63C1.0668 37.9266 1.00324 37.2141 1 36.5L1 8.5C1.00824 7.7961 1.07177 7.09394 1.19 6.4C1.29274 5.73867 1.49857 5.09754 1.8 4.5C2.09698 3.92414 2.48156 3.39787 2.94 2.94C3.39033 2.47882 3.90992 2.09081 4.48 1.79C5.07933 1.49296 5.71977 1.28735 6.38 1.18C7.07481 1.07 7.7766 1.00985 8.48 1L126.12 1C126.82 1.00988 127.519 1.07003 128.21 1.18C128.864 1.29083 129.498 1.49985 130.09 1.8C130.679 2.09045 131.216 2.47557 131.68 2.94C132.142 3.39757 132.529 3.9238 132.83 4.5C133.124 5.08581 133.326 5.71305 133.43 6.36C133.547 7.06106 133.613 7.7695 133.63 8.48L133.63 36.48C133.612 37.1767 133.548 37.8715 133.44 38.56C133.333 39.2138 133.127 39.8477 132.83 40.44C132.533 41.0159 132.148 41.5421 131.69 42C131.225 42.462 130.692 42.8498 130.11 43.15C129.518 43.4501 128.884 43.6592 128.23 43.77C127.536 43.8899 126.834 43.9501 126.13 43.95L9.48 43.95L9.48 44Z" fill="#000000"/>
<path d="M10.37 10C10.0441 10.3911 9.87955 10.8918 9.91 11.4L9.91 33.56C9.87955 34.0682 10.0441 34.5689 10.37 34.96L10.45 35.04L22.84 22.65L22.84 22.35L10.45 10L10.37 10Z" fill="#03d1ff"/>
<path d="M27 26.78L22.87 22.65L22.87 22.35L27 18.22L27.09 18.28L32 21.06C33.4 21.85 33.4 23.15 32 23.95L27.11 26.73L27 26.78Z" fill="#feca01"  />
<path d="M27.06 26.72L22.84 22.5L10.37 35C10.9578 35.5166 11.8288 35.5459 12.45 35.07L27.06 26.76" fill="#f93647"/>
<path d="M27.06 18.28L12.45 10C11.8338 9.51321 10.9571 9.5385 10.37 10.06L22.84 22.5L27.06 18.28Z" fill="#07f077"/>
<path d="M68.07 24.25C65.7173 24.2555 63.8145 26.1673 63.82 28.52C63.8255 30.8727 65.7373 32.7755 68.09 32.77C70.4427 32.7645 72.3455 30.8527 72.34 28.5C72.3565 27.3644 71.9112 26.2707 71.1063 25.4695C70.3013 24.6683 69.2055 24.2282 68.07 24.25ZM68.07 31.08C67.0138 31.1497 66.0222 30.5673 65.5687 29.6108C65.1153 28.6544 65.2921 27.518 66.0146 26.7444C66.7372 25.9709 67.8589 25.7172 68.844 26.1045C69.8291 26.4918 70.4777 27.4415 70.48 28.5C70.5126 29.1644 70.2747 29.8136 69.8207 30.2997C69.3666 30.7858 68.735 31.0673 68.07 31.08ZM58.76 24.25C57.0343 24.2419 55.4742 25.2758 54.8091 26.8682C54.144 28.4606 54.5054 30.297 55.7242 31.5187C56.943 32.7404 58.7785 33.1061 60.3725 32.4447C61.9665 31.7834 63.004 30.2257 63 28.5C63.0163 27.3697 62.5751 26.2807 61.7767 25.4804C60.9783 24.6801 59.8904 24.2364 58.76 24.25ZM58.76 31.08C57.7032 31.1539 56.7087 30.5743 56.252 29.6184C55.7954 28.6626 55.9694 27.5247 56.691 26.749C57.4125 25.9734 58.5348 25.7176 59.5212 26.1041C60.5075 26.4905 61.1574 27.4406 61.16 28.5C61.1925 29.1627 60.956 29.8104 60.5041 30.2962C60.0522 30.782 59.4233 31.0646 58.76 31.08ZM47.68 25.56L47.68 27.36L52 27.36C51.9323 28.2078 51.5798 29.0078 51 29.63C50.1371 30.536 48.9307 31.0338 47.68 31C45.029 31 42.88 28.851 42.88 26.2C42.88 23.549 45.029 21.4 47.68 21.4C48.8936 21.3871 50.0639 21.8502 50.94 22.69L52.21 21.42C51.006 20.2292 49.3732 19.5732 47.68 19.6C45.259 19.5058 42.9804 20.7437 41.7419 22.8261C40.5033 24.9084 40.5033 27.5016 41.7419 29.5839C42.9804 31.6663 45.259 32.9042 47.68 32.81C49.4102 32.8791 51.0875 32.206 52.29 30.96C53.3401 29.8064 53.8997 28.2892 53.85 26.73C53.8536 26.3547 53.8235 25.9799 53.76 25.61L47.68 25.56ZM93 27C92.4661 25.4292 91.0179 24.3511 89.36 24.29C88.2544 24.2878 87.1971 24.7434 86.4394 25.5485C85.6816 26.3537 85.2909 27.4365 85.36 28.54C85.3424 30.4148 86.5611 32.0775 88.3543 32.6251C90.1474 33.1728 92.0871 32.4747 93.12 30.91L91.67 29.91C91.2302 30.6431 90.4349 31.0883 89.58 31.08C88.6928 31.1166 87.8744 30.6041 87.52 29.79L93.2 27.44L93 27ZM87.2 28.42C87.1562 27.7935 87.3672 27.1759 87.7852 26.7071C88.2031 26.2383 88.7926 25.9581 89.42 25.93C90.0726 25.881 90.6925 26.2223 91 26.8L87.2 28.42ZM82.57 32.5L84.44 32.5L84.44 20L82.57 20L82.57 32.5ZM79.51 25.2L79.44 25.2C78.8655 24.5747 78.0488 24.2283 77.2 24.25C74.9301 24.3601 73.1463 26.2325 73.1463 28.505C73.1463 30.7775 74.9301 32.6499 77.2 32.76C78.0584 32.7772 78.8797 32.4106 79.44 31.76L79.51 31.76L79.51 32.37C79.6074 33.0191 79.4072 33.6776 78.9649 34.1625C78.5226 34.6475 77.8853 34.9074 77.23 34.87C76.2763 34.8477 75.4307 34.251 75.09 33.36L73.47 34.03C74.0818 35.5665 75.5762 36.5681 77.23 36.55C79.43 36.55 81.23 35.26 81.23 32.12L81.23 24.51L79.51 24.51L79.51 25.2ZM77.36 31.08C76.0001 30.9952 74.9405 29.8676 74.9405 28.505C74.9405 27.1424 76.0001 26.0148 77.36 25.93C78.0108 25.9576 78.6221 26.2497 79.0525 26.7386C79.4829 27.2276 79.6951 27.871 79.64 28.52C79.6894 29.1647 79.4743 29.8018 79.0443 30.2847C78.6142 30.7676 78.0061 31.0547 77.36 31.08ZM101.74 20L97.27 20L97.27 32.5L99.14 32.5L99.14 27.76L101.74 27.76C103.193 27.8644 104.582 27.1485 105.34 25.905C106.098 24.6614 106.098 23.0986 105.34 21.855C104.582 20.6115 103.193 19.8956 101.74 20ZM101.79 26L99.14 26L99.14 21.74L101.79 21.74C102.972 21.74 103.93 22.6981 103.93 23.88C103.93 25.0619 102.972 26.02 101.79 26.02L101.79 26ZM113.32 24.21C111.926 24.1292 110.619 24.889 110 26.14L111.65 26.83C111.991 26.2159 112.66 25.8595 113.36 25.92C113.84 25.864 114.321 26.003 114.698 26.3057C115.074 26.6085 115.312 27.0496 115.36 27.53L115.36 27.65C114.759 27.3339 114.089 27.1692 113.41 27.17C111.63 27.17 109.81 28.17 109.81 29.99C109.846 30.7697 110.195 31.5018 110.779 32.0198C111.363 32.5378 112.132 32.7975 112.91 32.74C113.869 32.7973 114.782 32.3253 115.29 31.51L115.36 31.51L115.36 32.51L117.16 32.51L117.16 27.69C117.12 25.47 115.46 24.23 113.32 24.23L113.32 24.21ZM113.1 31.06C112.49 31.06 111.64 30.75 111.64 30C111.64 29 112.7 28.66 113.64 28.66C114.237 28.6455 114.827 28.7905 115.35 29.08C115.218 30.2219 114.249 31.0825 113.1 31.08L113.1 31.06ZM123.68 24.48L121.54 29.9L121.48 29.9L119.26 24.48L117.26 24.48L120.59 32.06L118.69 36.27L120.64 36.27L125.77 24.48L123.68 24.48ZM106.88 32.48L108.74 32.48L108.74 20L106.88 20L106.88 32.48Z" fill="#fff"/>
<path d="M42.05 16.77L41.32 16.77L41.32 14.77L41.9 14.77C42.4847 14.1593 42.767 13.3199 42.67 12.48L42.67 9.48L46.67 9.48L46.67 14.74L47.34 14.74L47.34 16.74L46.6 16.74L46.6 15.5L42.05 15.5L42.05 16.77ZM43.44 12.47C43.4846 13.2733 43.286 14.0714 42.87 14.76L45.87 14.76L45.87 10.24L43.44 10.24L43.44 12.47Z" fill="#fff"/>
<path d="M53.35 14.72C52.1353 15.9357 50.1647 15.9357 48.95 14.72C48.3621 14.1337 48.0435 13.3299 48.07 12.5C48.0565 11.6626 48.3937 10.8578 49 10.28C50.2147 9.06427 52.1853 9.06427 53.4 10.28C53.9836 10.8699 54.3045 11.6703 54.29 12.5C54.3009 13.3389 53.96 14.144 53.35 14.72ZM49.52 14.22C49.9459 14.6623 50.536 14.9085 51.15 14.9C51.7647 14.9122 52.3562 14.6654 52.78 14.22C53.2316 13.764 53.4742 13.1413 53.45 12.5C53.4742 11.8587 53.2316 11.236 52.78 10.78C52.3562 10.3346 51.7647 10.0878 51.15 10.1C50.536 10.0915 49.9459 10.3377 49.52 10.78C49.0751 11.2396 48.8367 11.8607 48.86 12.5C48.8367 13.1393 49.0751 13.7604 49.52 14.22Z" fill="#fff"/>
<path d="M58.12 15.63C57.2886 15.6539 56.4846 15.3316 55.9 14.74C55.2996 14.1523 54.9731 13.3398 55 12.5C54.9807 11.6659 55.3029 10.86 55.892 10.2691C56.481 9.67819 57.2858 9.35342 58.12 9.37C58.9684 9.346 59.7803 9.71505 60.32 10.37L59.79 10.89C59.3913 10.3775 58.7687 10.0904 58.12 10.12C57.4978 10.1041 56.8969 10.3467 56.46 10.79C56.0047 11.2477 55.7618 11.875 55.79 12.52C55.7618 13.165 56.0047 13.7923 56.46 14.25C56.8969 14.6933 57.4978 14.9359 58.12 14.92C58.8558 14.9232 59.551 14.583 60 14L60.54 14.53C60.2661 14.8583 59.9251 15.1242 59.54 15.31C59.0989 15.5282 58.6121 15.6379 58.12 15.63Z" fill="#fff"/>
<path d="M63.62 15.5L62.84 15.5L62.84 10.24L61.17 10.24L61.17 9.5L65.29 9.5L65.29 10.24L63.62 10.24L63.62 15.5Z" fill="#fff"/>
<path d="M70.59 9.5L68.31 14.56C68.1279 15.1805 67.5664 15.6128 66.92 15.63C66.7132 15.6282 66.509 15.584 66.32 15.5L66.52 14.79C66.6419 14.8599 66.7795 14.8978 66.92 14.9C67.068 14.9074 67.2147 14.869 67.34 14.79C67.4615 14.6889 67.5545 14.558 67.61 14.41L67.83 13.93L65.83 9.5L66.73 9.5L68.22 12.94L68.22 12.94L69.68 9.5L70.59 9.5Z" fill="#fff"/>
<path d="M71.46 15.5L71.46 9.5L75.8 9.5L75.8 15.5L75 15.5L75 10.24L72.2 10.24L72.2 15.5L71.46 15.5Z" fill="#fff"/>
<path d="M77.17 15.5L77.17 9.5L77.94 9.5L77.94 12.07L80.94 12.07L80.94 9.5L81.72 9.5L81.72 15.5L80.94 15.5L80.94 12.79L77.94 12.79L77.94 15.5L77.17 15.5Z" fill="#fff"/>
<path d="M88 14.72C86.7853 15.9357 84.8147 15.9357 83.6 14.72C83.0084 14.1354 82.6861 13.3314 82.71 12.5C82.6861 11.6686 83.0084 10.8646 83.6 10.28C84.1816 9.69682 84.9714 9.36906 85.795 9.36906C86.6186 9.36906 87.4084 9.69682 87.99 10.28C88.5736 10.8699 88.8945 11.6703 88.88 12.5C88.9065 13.3299 88.5879 14.1337 88 14.72ZM84.17 14.22C84.5938 14.6654 85.1853 14.9122 85.8 14.9C86.414 14.9085 87.0041 14.6623 87.43 14.22C87.8749 13.7604 88.1133 13.1393 88.09 12.5C88.1133 11.8607 87.8749 11.2396 87.43 10.78C87.0041 10.3377 86.414 10.0915 85.8 10.1C85.1853 10.0878 84.5938 10.3346 84.17 10.78C83.7184 11.236 83.4758 11.8587 83.5 12.5C83.4758 13.1413 83.7184 13.764 84.17 14.22Z" fill="#fff"/>
<path d="M92 15.5L92 9.5L94.2 9.5C94.6499 9.49548 95.0851 9.65959 95.42 9.96C95.7571 10.2544 95.9474 10.6825 95.94 11.13C95.9517 11.6762 95.6257 12.1732 95.12 12.38L95.12 12.38C95.4115 12.4731 95.6667 12.6549 95.85 12.9C96.0408 13.1419 96.1432 13.4419 96.14 13.75C96.1595 14.2271 95.9607 14.6871 95.6 15C95.2529 15.323 94.794 15.4986 94.32 15.49L92 15.5ZM92.77 12.07L94.17 12.07C94.4354 12.0854 94.6932 11.9785 94.87 11.78C95.0396 11.6138 95.1366 11.3874 95.14 11.15C95.1362 10.9147 95.0433 10.6895 94.88 10.52C94.7098 10.3312 94.464 10.2284 94.21 10.24L92.8 10.24L92.77 12.07ZM92.77 14.76L94.32 14.76C94.5948 14.7721 94.86 14.6579 95.04 14.45C95.3896 14.0679 95.3896 13.4821 95.04 13.1C94.8451 12.8953 94.5726 12.7827 94.29 12.79L92.8 12.79L92.77 14.76Z" fill="#fff"/>
</svg>
